<?xml version="1.0" encoding="UTF-8"?>
<svg width="600" height="600" viewBox="0 0 600 600" fill="none" xmlns="http://www.w3.org/2000/svg">
  <path d="M468.665 0H131.335C58.8007 0 0 58.8007 0 131.335V468.665C0 541.199 58.8007 6E+2 131.335 6E+2H468.665C541.199 6E+2 6E+2 541.199 6E+2 468.665V131.335C6E+2 58.8007 541.199 0 468.665 0Z" fill="#6D5BF6"/>
  <path d="M401.335 456.286C401.115 456.337 400.895 456.371 400.676 456.422C400.102 456.523 399.511 456.607 398.937 456.675C398.565 456.726 398.193 456.776 397.805 456.81C397.552 456.827 397.282 456.827 397.028 456.844C396.454 456.877 395.88 456.928 395.289 456.928C390.29 456.928 385.477 455.662 381.221 453.314C378.823 451.997 376.611 450.342 374.618 448.366C373.25 446.998 371.325 446.205 369.383 446.205C367.441 446.205 365.533 446.998 364.148 448.366C362.78 449.734 361.986 451.659 361.986 453.601C361.986 455.543 362.78 457.452 364.148 458.836C365.583 460.272 367.137 461.555 368.725 462.771C354.066 486.498 328.431 500.988 300.279 500.988C272.127 500.988 246.306 486.397 231.665 462.518C233.134 461.386 234.552 460.187 235.887 458.853C237.255 457.485 238.048 455.56 238.048 453.618C238.048 451.676 237.255 449.768 235.887 448.383C234.519 447.015 232.594 446.221 230.651 446.221C228.709 446.221 226.801 447.015 225.416 448.383C223.508 450.291 221.363 451.896 219.067 453.179C214.743 455.628 209.846 456.945 204.729 456.945C204.442 456.945 204.172 456.911 203.885 456.911C203.277 456.911 202.652 456.878 202.044 456.827C201.858 456.827 201.672 456.793 201.487 456.776C200.642 456.692 199.815 456.574 198.97 456.405H198.953C194.292 455.493 189.851 453.449 186.034 450.308C181.103 452.267 176.172 454.226 171.241 456.185C172.001 457.08 172.761 457.975 173.605 458.82C185.545 470.759 202.888 474.593 218.543 469.307C218.577 469.374 218.627 469.425 218.661 469.476C235.87 498.134 266.504 515.663 300.228 515.663C333.953 515.663 364.486 498.185 381.711 469.628C381.745 469.56 381.796 469.509 381.829 469.442C397.383 474.508 414.558 470.607 426.328 458.82C427.139 458.009 427.865 457.148 428.608 456.286C423.677 454.311 418.729 452.352 413.798 450.393C410.099 453.416 405.793 455.408 401.267 456.337L401.335 456.286Z" fill="white"/>
  <path d="M476.906 247.708C469.391 240.193 460.221 234.991 450.072 232.424C450.038 232.424 450.004 232.407 449.971 232.39C450.646 220.029 446.12 207.971 437.22 199.071C425.433 187.284 408.258 183.383 392.722 188.449C392.688 188.381 392.637 188.331 392.603 188.263C385.072 175.783 374.99 165.414 363.219 157.697C369.045 169.873 374.871 182.065 380.715 194.241C381.221 195.305 381.745 196.386 382.251 197.45C383.231 199.493 384.21 201.554 385.207 203.597C385.832 204.053 386.49 204.425 387.233 204.661C388.821 205.168 390.526 205.1 392.08 204.509C396.352 202.162 401.149 200.895 406.147 200.895C406.721 200.895 407.296 200.946 407.87 200.979C408.14 200.979 408.41 200.996 408.664 201.013C409.035 201.047 409.407 201.098 409.778 201.131C410.369 201.199 410.943 201.283 411.534 201.385C411.754 201.419 411.974 201.469 412.176 201.503C417.614 202.618 422.748 205.269 426.868 209.39C430.803 213.324 433.404 218.222 434.603 223.491C434.704 223.913 434.806 224.335 434.89 224.774C434.991 225.331 435.076 225.872 435.143 226.429C435.228 227.054 435.278 227.696 435.312 228.337C435.329 228.76 435.363 229.165 435.38 229.587C435.38 229.773 435.414 229.942 435.414 230.111C435.414 232.34 435.143 234.501 434.654 236.629C433.455 241.949 430.786 246.846 426.852 250.798C423.964 253.686 423.964 258.38 426.852 261.268C428.219 262.636 430.145 263.43 432.087 263.43C434.029 263.43 435.937 262.636 437.322 261.268C441.544 257.046 444.803 252.115 446.982 246.728C454.395 248.704 461.083 252.52 466.588 258.009C483.729 275.15 483.729 303.048 466.588 320.189C463.734 323.043 463.734 327.687 466.588 330.558C474.897 338.867 479.473 349.911 479.473 361.648C479.473 370.312 476.974 378.57 472.347 385.646C474.711 390.56 477.058 395.491 479.406 400.422C498.202 379.161 498.962 347.429 481.567 325.374C499.705 302.39 498.168 268.851 476.957 247.64L476.906 247.708Z" fill="white"/>
  <path d="M133.446 330.187C136.3 327.333 136.3 322.689 133.446 319.818C124.867 311.239 120.595 299.992 120.595 288.728C120.595 277.463 124.884 266.199 133.446 257.637C138.935 252.149 145.639 248.332 153.053 246.357C155.231 251.727 158.491 256.658 162.712 260.88C164.08 262.248 166.006 263.041 167.948 263.041C169.89 263.041 171.798 262.248 173.183 260.88C174.551 259.512 175.344 257.587 175.344 255.645C175.344 253.703 174.551 251.794 173.183 250.41C169.231 246.458 166.58 241.56 165.364 236.241C164.891 234.13 164.604 231.951 164.604 229.722C164.604 229.536 164.621 229.368 164.638 229.182C164.638 228.777 164.671 228.371 164.705 227.949C164.739 227.307 164.79 226.649 164.874 226.007C164.942 225.45 165.026 224.909 165.11 224.369C165.195 223.93 165.296 223.491 165.398 223.068C166.597 217.816 169.18 212.936 173.132 208.984C177.337 204.779 182.572 202.111 188.111 201.03H188.128C188.956 200.861 189.8 200.743 190.645 200.659C190.83 200.642 191.016 200.625 191.202 200.608C191.81 200.557 192.418 200.524 193.026 200.524C193.313 200.524 193.583 200.49 193.87 200.49C196.099 200.49 198.295 200.76 200.422 201.25C199.95 201.317 199.46 201.402 198.987 201.486C199.46 201.385 199.95 201.317 200.422 201.25C203.141 201.875 205.759 202.888 208.191 204.256C209.761 204.897 211.518 204.999 213.139 204.475C213.645 204.306 214.135 204.087 214.591 203.817C215.486 201.942 216.398 200.051 217.293 198.176L219.353 193.853L236.646 157.68C225.095 165.38 215.216 175.631 207.819 187.959C207.785 188.027 207.735 188.077 207.701 188.128C192.046 182.825 174.703 186.676 162.763 198.615C153.863 207.515 149.337 219.573 150.013 231.934C149.979 231.934 149.945 231.951 149.912 231.968C139.762 234.552 130.575 239.753 123.077 247.252C101.883 268.462 100.346 302.001 118.467 324.985C110.108 335.591 105.936 348.425 105.936 361.26C105.936 375.141 110.884 389.006 120.679 400.051C123.027 395.136 125.374 390.222 127.738 385.308C116.592 368.268 118.501 345.132 133.463 330.17L133.446 330.187Z" fill="white"/>
  <path d="M468.48 400.49C466.116 395.575 463.768 390.644 461.421 385.713C449.768 361.395 438.133 337.077 426.514 312.742C417.631 294.148 408.765 275.555 399.865 256.962C392.046 240.598 384.194 224.234 376.358 207.887C375.682 206.468 374.99 205.049 374.314 203.614C373.335 201.571 372.356 199.51 371.359 197.467C370.853 196.403 370.329 195.322 369.822 194.258C363.979 182.082 358.17 169.889 352.327 157.713C343.427 139.12 334.51 120.544 325.644 101.951C320.038 90.1968 311.307 84.3537 299.992 84.3874C288.053 84.4888 279.17 90.619 274.289 102.103C271.79 107.996 268.97 113.704 265.98 119.733C264.528 122.655 263.093 125.576 261.674 128.532L247.505 158.169L230.213 194.343L228.152 198.666C227.257 200.54 226.345 202.432 225.45 204.306C224.859 205.539 224.268 206.755 223.694 207.988C195.356 267.263 166.985 326.539 138.597 385.798C136.25 390.712 133.902 395.626 131.538 400.54C129.292 405.235 127.046 409.913 124.8 414.608C117.082 430.702 122.503 441.527 128.397 447.775C136.892 456.759 147.902 458.6 161.159 453.264C164.486 451.929 167.83 450.595 171.173 449.261L171.258 449.227C176.189 447.268 181.12 445.309 186.051 443.351L186.119 443.317C195.711 439.517 205.303 435.751 214.71 432.07C237.407 423.153 260.88 413.949 283.864 404.543C295.061 399.966 305.295 400.034 317.032 404.813C340.37 414.287 364.148 423.71 387.166 432.83C396.049 436.342 404.898 439.889 413.764 443.418H413.815C418.746 445.411 423.694 447.353 428.625 449.329L428.71 449.363C432.036 450.697 435.38 451.997 438.707 453.331C443.604 455.307 448.232 456.286 452.555 456.286C459.462 456.286 465.626 453.77 470.928 448.738L471.334 448.332C484.523 433.978 477.65 419.674 473.107 410.217C471.57 407.008 470.033 403.783 468.48 400.557V400.49ZM459.107 436.646C456.067 439.433 452.437 440.632 444.989 437.643C442.355 436.579 439.72 435.548 437.086 434.501L436.968 434.451C432.425 432.644 427.882 430.837 423.339 429.03H423.305C413.325 425.044 403.361 421.059 393.364 417.107C370.397 408.005 346.636 398.598 323.365 389.158C315.292 385.882 307.575 384.244 299.908 384.244C292.241 384.244 285.047 385.798 277.447 388.905C254.581 398.261 231.175 407.464 208.529 416.347C198.042 420.468 187.335 424.673 176.628 428.912H176.594C172.052 430.735 167.509 432.542 162.966 434.349L162.848 434.4C160.18 435.464 157.511 436.528 154.86 437.592C146.264 441.054 143.123 438.791 140.641 436.156C138.243 433.606 135.997 430.195 139.999 421.869C141.62 418.492 143.224 415.114 144.846 411.737C146.973 407.295 149.101 402.854 151.229 398.413C181.981 334.257 212.683 270.084 243.368 205.894L262.265 166.394L271.722 146.618L276.907 135.793C278.275 132.922 279.693 130.068 281.112 127.214C284.084 121.236 287.141 115.038 289.843 108.689C292.443 102.558 295.855 101.275 300.178 101.241C300.229 101.241 300.279 101.241 300.313 101.241C304.248 101.241 307.321 102.609 310.462 109.212C316.39 121.641 322.351 134.054 328.296 146.483C331.42 153.019 334.544 159.554 337.668 166.09C343.849 178.992 349.996 191.894 356.177 204.779C365.685 224.605 375.176 244.431 384.667 264.274C393.549 282.851 402.432 301.444 411.298 320.037C423.778 346.179 436.275 372.304 448.789 398.413C450.917 402.854 453.028 407.295 455.155 411.737C456.067 413.645 456.979 415.554 457.891 417.462C462.839 427.746 463.616 431.597 459.107 436.646Z" fill="white"/>
</svg>
